Coordinates
version=1
nRows=30
nColumns=23
inDegrees=yes

Units are S.I. units (second, meters, Newtons, ...)
If the header above contains a line with 'inDegrees', this indicates whether rotational values are in degrees (yes) or radians (no).

endheader
time	pelvis_tilt	pelvis_list	pelvis_rotation	pelvis_tx	pelvis_ty	pelvis_tz	hip_flexion_r	hip_adduction_r	hip_rotation_r	knee_angle_r	knee_angle_r_beta	ankle_angle_r	subtalar_angle_r	mtp_angle_r	hip_flexion_l	hip_adduction_l	hip_rotation_l	knee_angle_l	knee_angle_l_beta	ankle_angle_l	subtalar_angle_l	mtp_angle_l
      0.00000000	     -7.12308089	      1.24598156	     11.14177203	      2.38640327	      1.08109429	      0.95803781	    -11.89152231	     -0.15413744	    -25.36902475	     20.67528831	      0.36085185	    -12.49621841	     -1.65522927	      0.00000000	     39.59014826	      6.77267203	      5.05322945	     68.42231159	      1.19419462	      7.82382304	     -9.48969796	      0.00000000
      0.00666667	     -7.63322747	      1.16277214	     12.01827150	      2.38761942	      1.08277107	      0.95683402	    -11.99854222	      0.00424078	    -25.81470155	     21.39321509	      0.37338204	    -12.75696498	     -2.88925295	      0.00000000	     39.90050270	      7.08074137	      4.92681367	     64.61559790	      1.12775493	      8.15133975	     -8.40652108	      0.00000000
      0.01333333	     -8.09745880	      1.17432937	     12.84512408	      2.38887588	      1.08432905	      0.95564302	    -12.15822080	      0.06564427	    -26.20732764	     22.15908673	      0.38674902	    -12.88131133	     -4.07565569	      0.00000000	     39.93717791	      7.47593221	      4.74583640	     60.54895703	      1.05677866	      8.46946893	     -7.12576865	      0.00000000
      0.02000000	     -8.51322886	      1.23336802	     13.60543534	      2.39013269	      1.08573962	      0.95449288	    -12.33732637	      0.08845765	    -26.43645310	     22.99923110	      0.40141231	    -12.73534512	     -5.23475066	      0.00000000	     39.72565736	      7.90642896	      4.55502480	     56.26712144	      0.98204653	      8.77922053	     -5.66014229	      0.00000000
      0.02666667	     -8.74486032	      1.44398316	     14.19786650	      2.39130520	      1.08707635	      0.95353117	    -12.63203224	     -0.06822733	    -26.49974414	     24.07004213	      0.42010149	    -12.48624609	     -6.49751318	      0.00000000	     39.12188150	      8.33028569	      4.18705782	     51.79788671	      0.90404367	      9.15866203	     -3.81673919	      0.00000000
      0.03333333	     -8.89622224	      1.67688675	     14.71241244	      2.39239166	      1.08816972	      0.95259767	    -12.91843377	     -0.25410477	    -26.37941835	     25.33009893	      0.44209363	    -11.92688871	     -7.65984330	      0.00000000	     38.28446648	      8.75408923	      3.84313443	     47.19654552	      0.82373511	      9.49224827	     -1.74974253	      0.00000000
      0.04000000	     -8.91908894	      1.96379401	     15.13011031	      2.39335221	      1.08900169	      0.95173241	    -13.20869253	     -0.52525182	    -26.13637095	     26.89129921	      0.46934171	    -11.13284237	     -8.70853375	      0.00000000	     37.17775499	      9.19568297	      3.55290877	     42.51186177	      0.74197196	      9.79843912	      0.53763371	      0.00000000
      0.04666667	     -8.93484335	      2.26288924	     15.51193350	      2.39405321	      1.08937594	      0.95077869	    -13.36093751	     -0.87494971	    -25.83125195	     28.77026722	      0.50213589	    -10.21671645	     -9.86153855	      0.00000000	     35.94580295	      9.76276978	      3.61573823	     37.77679966	      0.65932953	     10.06868648	      2.59960436	      0.00000000
      0.05333333	     -8.67951981	      2.69972153	     15.71560025	      2.39480567	      1.08967344	      0.95000890	    -13.71196913	     -1.38765204	    -25.46954932	     30.89103671	      0.53915030	     -9.21336603	    -10.49900121	      0.00000000	     34.29051483	     10.30225564	      3.66279974	     33.03148492	      0.57650817	     10.37742948	      4.80969569	      0.00000000
      0.06000000	     -8.43957045	      3.06713619	     15.82061331	      2.39524066	      1.08943169	      0.94942171	    -13.84669696	     -1.85374738	    -24.82817814	     33.29486450	      0.58110501	     -8.34278497	    -11.54133010	      0.00000000	     32.60616870	     10.84592095	      4.21962804	     28.36289847	      0.49502596	     10.59855334	      6.38681583	      0.00000000
      0.06666667	     -8.06565338	      3.42111681	     15.85666991	      2.39553544	      1.08876769	      0.94895876	    -13.96527176	     -2.31886643	    -24.12436506	     35.96829114	      0.62776511	     -7.53857533	    -12.61721914	      0.00000000	     30.78586171	     11.31830154	      5.05632003	     23.94954499	      0.41799841	     10.84471844	      7.71692022	      0.00000000
      0.07333333	     -7.38914748	      3.79715058	     15.86059938	      2.39578376	      1.08808763	      0.94867674	    -14.33046004	     -2.71206555	    -23.42402534	     38.71017012	      0.67561992	     -6.97718777	    -13.43341931	      0.00000000	     28.47810271	     11.82082928	      6.92134197	     19.52068541	      0.34070023	     10.74859332	      7.47067410	      0.00000000
      0.08000000	     -6.74603146	      4.01816617	     15.73090561	      2.39577258	      1.08669108	      0.94877215	    -14.40952432	     -2.96686025	    -22.44945517	     41.72919884	      0.72831191	     -6.64570204	    -14.73117010	      0.00000000	     26.47919630	     11.94819270	      8.33679494	     15.79824012	      0.27573131	     10.78227793	      7.61752199	      0.00000000
      0.08666667	     -6.32524177	      4.04292956	     15.73672702	      2.39544500	      1.08428445	      0.94871216	    -14.06429728	     -3.11132973	    -21.66699452	     45.03352906	      0.78598336	     -6.34413355	    -15.93123007	      0.00000000	     25.15974877	     11.88373784	      9.15262060	     13.18772322	      0.23016919	     11.35381362	      8.60536583	      0.00000000
      0.09333333	     -5.51738992	      4.29357491	     15.41373077	      2.39489329	      1.08208197	      0.94930808	    -13.99326965	     -3.37884238	    -20.50669088	     48.46623057	      0.84589530	     -6.68410072	    -17.78771660	      0.00000000	     23.33507745	     11.82116908	     10.29038350	     10.68825281	      0.18654520	     10.77346621	      7.69119014	      0.00000000
      0.10000000	     -5.09368372	      4.51536666	     15.33930255	      2.39393835	      1.07871440	      0.94938276	    -13.41482374	     -3.82917168	    -19.86327666	     52.21834690	      0.91138208	     -6.85943885	    -19.23366975	      0.00000000	     22.44596283	     11.87921780	     10.44803902	      9.58956029	      0.16736940	     10.76570463	      7.94047504	      0.00000000
      0.10666667	     -4.77655386	      4.74582258	     15.30696360	      2.39262997	      1.07481341	      0.94948966	    -12.60954847	     -4.31531831	    -19.27428355	     56.10675084	      0.97924753	     -7.23921184	    -20.93209727	      0.00000000	     21.91330515	     12.00780706	     10.43123014	      9.29379729	      0.16220736	     10.50739191	      7.71695476	      0.00000000
      0.11333333	     -4.84238845	      4.93769919	     15.32108708	      2.39079702	      1.07000830	      0.94958650	    -11.23109297	     -4.90065261	    -18.73042459	     60.22520162	      1.05112806	     -7.69350599	    -22.83035977	      0.00000000	     22.13174643	     12.23457834	     10.14332757	      9.97622147	      0.17411791	     10.06148242	      7.14151523	      0.00000000
      0.12000000	     -5.06833354	      5.26967184	     15.49234583	      2.38872513	      1.06454500	      0.94938514	     -9.69916591	     -5.75825629	    -18.51154578	     64.42675512	      1.12445900	     -8.05479316	    -24.47098585	      0.00000000	     22.74699524	     12.69819412	      9.52894999	     11.51999419	      0.20106183	      9.47062550	      6.52079359	      0.00000000
      0.12666667	     -5.48294209	      5.64018810	     15.75917737	      2.38638918	      1.05845374	      0.94911366	     -7.92815613	     -6.77162040	    -18.42796070	     68.68493716	      1.19877830	     -8.28750653	    -25.95919470	      0.00000000	     23.77081604	     13.27301637	      8.77008267	     13.80860038	      0.24100554	      8.75722774	      5.68209842	      0.00000000
      0.13333333	     -6.00577908	      5.96006685	     16.10780192	      2.38383641	      1.05189822	      0.94882361	     -5.98247485	     -7.79829437	    -18.39737387	     72.92607246	      1.27280007	     -8.26068023	    -27.12157124	      0.00000000	     25.09494333	     13.84400032	      8.01071856	     16.74057249	      0.29217811	      8.06612767	      4.67038560	      0.00000000
      0.14000000	     -6.59834719	      6.24373622	     16.45433995	      2.38111089	      1.04503583	      0.94869649	     -3.87996182	     -8.82877934	    -18.29403816	     77.12363731	      1.34606140	     -7.96748195	    -27.97732202	      0.00000000	     26.56667261	     14.39043558	      7.40563106	     20.05264186	      0.34998462	      7.52554142	      3.36800751	      0.00000000
      0.14666667	     -7.20362828	      6.52918104	     16.94279383	      2.37837326	      1.03806068	      0.94835324	     -1.78990461	     -9.91412285	    -18.31584663	     81.17386030	      1.41675113	     -7.41176183	    -28.48972118	      0.00000000	     27.97325582	     15.07242583	      7.32465445	     23.52179078	      0.41053270	      7.26023365	      1.71090402	      0.00000000
      0.15333333	     -7.82220336	      6.75254022	     17.32184326	      2.37550576	      1.03119837	      0.94828501	      0.45849877	    -10.91295088	    -18.07160514	     85.10734449	      1.48540338	     -6.66745332	    -28.80320309	      0.00000000	     29.32904180	     15.70787831	      7.50487398	     27.00524415	      0.47133043	      7.36496951	     -0.19566519	      0.00000000
      0.16000000	     -8.41600353	      7.02590315	     17.60150832	      2.37265678	      1.02466931	      0.94832329	      2.75955399	    -11.95317143	    -17.61293768	     88.86804443	      1.55103998	     -5.80170741	    -28.98042210	      0.00000000	     30.46809108	     16.41715991	      7.94657225	     30.29007035	      0.52866146	      7.82028199	     -2.32973682	      0.00000000
      0.16666667	     -8.89202888	      7.27372188	     17.85620204	      2.36989181	      1.01871973	      0.94833708	      5.00144029	    -12.91220746	    -17.03281730	     92.37103805	      1.61217875	     -4.91398941	    -29.06983438	      0.00000000	     31.30386127	     17.09283163	      8.50506243	     33.37951474	      0.58258243	      8.78609439	     -4.15565379	      0.00000000
      0.17333333	     -9.32404366	      7.48555645	     18.02173920	      2.36720658	      1.01334639	      0.94838010	      7.30596092	    -13.78184206	    -16.25220243	     95.62940637	      1.66904800	     -4.05385695	    -29.10010720	      0.00000000	     31.89627749	     17.68311048	      9.06456174	     36.17596700	      0.63138973	     10.08575835	     -5.64474321	      0.00000000
      0.18000000	     -9.65122763	      7.69349798	     17.93441394	      2.36465611	      1.00878150	      0.94873702	      9.68098287	    -14.51023775	    -15.10101687	     98.62176885	      1.72127458	     -3.26669080	    -29.09342843	      0.00000000	     32.15794944	     18.08017473	      9.46770809	     38.56909450	      0.67315769	     11.65481919	     -6.81856777	      0.00000000
      0.18666667	     -9.92620508	      7.83746383	     17.69765410	      2.36228496	      1.00493793	      0.94924196	     12.14018736	    -15.06086193	    -13.73519182	    101.31302838	      1.76824592	     -2.57031094	    -29.03213902	      0.00000000	     32.16338302	     18.26123617	      9.72482994	     40.59296853	      0.70848095	     13.41514829	     -7.57465677	      0.00000000
      0.19333333	    -10.15194913	      7.93986917	     17.21661515	      2.36013867	      1.00187784	      0.95002883	     14.71423149	    -15.40062473	    -12.07389787	    103.69765299	      1.80986547	     -1.96362721	    -28.91584831	      0.00000000	     31.91097433	     18.20560987	      9.79774675	     42.20238452	      0.73657056	     15.28935702	     -7.99594822	      0.00000000
